<mxfile host="app.diagrams.net" agent="Mozilla/5.0 (Windows NT 10.0; Win64; x64) AppleWebKit/537.36 (KHTML, like Gecko) Chrome/135.0.0.0 Safari/537.36 Edg/135.0.0.0" version="26.2.9">
  <diagram name="第 1 页" id="Vy6IKg9ERMKDOhJ2_cUB">
    <mxGraphModel dx="1548" dy="832" grid="1" gridSize="10" guides="1" tooltips="1" connect="1" arrows="1" fold="1" page="1" pageScale="1" pageWidth="827" pageHeight="1169" math="0" shadow="0">
      <root>
        <mxCell id="0" />
        <mxCell id="1" parent="0" />
        <mxCell id="cXAFU_0mryo2N9BoJsz5-1" value="家庭成员" style="rounded=0;whiteSpace=wrap;html=1;" parent="1" vertex="1">
          <mxGeometry x="379" y="50" width="70" height="40" as="geometry" />
        </mxCell>
        <mxCell id="cXAFU_0mryo2N9BoJsz5-3" style="edgeStyle=orthogonalEdgeStyle;rounded=0;orthogonalLoop=1;jettySize=auto;html=1;exitX=0.5;exitY=0;exitDx=0;exitDy=0;" parent="1" source="cXAFU_0mryo2N9BoJsz5-2" target="cXAFU_0mryo2N9BoJsz5-1" edge="1">
          <mxGeometry relative="1" as="geometry" />
        </mxCell>
        <mxCell id="cXAFU_0mryo2N9BoJsz5-90" value="1" style="edgeLabel;html=1;align=center;verticalAlign=middle;resizable=0;points=[];" parent="cXAFU_0mryo2N9BoJsz5-3" vertex="1" connectable="0">
          <mxGeometry x="-0.2816" y="2" relative="1" as="geometry">
            <mxPoint y="1" as="offset" />
          </mxGeometry>
        </mxCell>
        <mxCell id="cXAFU_0mryo2N9BoJsz5-2" value="&lt;div&gt;报告&lt;/div&gt;" style="rhombus;whiteSpace=wrap;html=1;" parent="1" vertex="1">
          <mxGeometry x="230" y="130" width="100" height="40" as="geometry" />
        </mxCell>
        <mxCell id="cXAFU_0mryo2N9BoJsz5-6" style="edgeStyle=orthogonalEdgeStyle;rounded=0;orthogonalLoop=1;jettySize=auto;html=1;exitX=0.5;exitY=0;exitDx=0;exitDy=0;entryX=0.5;entryY=1;entryDx=0;entryDy=0;" parent="1" source="cXAFU_0mryo2N9BoJsz5-5" target="cXAFU_0mryo2N9BoJsz5-1" edge="1">
          <mxGeometry relative="1" as="geometry" />
        </mxCell>
        <mxCell id="cXAFU_0mryo2N9BoJsz5-91" value="n" style="edgeLabel;html=1;align=center;verticalAlign=middle;resizable=0;points=[];" parent="cXAFU_0mryo2N9BoJsz5-6" vertex="1" connectable="0">
          <mxGeometry x="0.0161" y="3" relative="1" as="geometry">
            <mxPoint as="offset" />
          </mxGeometry>
        </mxCell>
        <mxCell id="cXAFU_0mryo2N9BoJsz5-5" value="&lt;div&gt;报告&lt;/div&gt;" style="rhombus;whiteSpace=wrap;html=1;" parent="1" vertex="1">
          <mxGeometry x="510" y="130" width="100" height="40" as="geometry" />
        </mxCell>
        <mxCell id="cXAFU_0mryo2N9BoJsz5-9" style="edgeStyle=orthogonalEdgeStyle;rounded=0;orthogonalLoop=1;jettySize=auto;html=1;exitX=0.5;exitY=0;exitDx=0;exitDy=0;entryX=0.5;entryY=1;entryDx=0;entryDy=0;" parent="1" source="cXAFU_0mryo2N9BoJsz5-8" target="cXAFU_0mryo2N9BoJsz5-5" edge="1">
          <mxGeometry relative="1" as="geometry">
            <Array as="points">
              <mxPoint x="560" y="190" />
              <mxPoint x="560" y="190" />
            </Array>
          </mxGeometry>
        </mxCell>
        <mxCell id="cXAFU_0mryo2N9BoJsz5-88" value="1" style="edgeLabel;html=1;align=center;verticalAlign=middle;resizable=0;points=[];" parent="cXAFU_0mryo2N9BoJsz5-9" vertex="1" connectable="0">
          <mxGeometry x="-0.3667" y="-1" relative="1" as="geometry">
            <mxPoint x="1" as="offset" />
          </mxGeometry>
        </mxCell>
        <mxCell id="cXAFU_0mryo2N9BoJsz5-8" value="家庭月度预算信息" style="rounded=0;whiteSpace=wrap;html=1;" parent="1" vertex="1">
          <mxGeometry x="525" y="200" width="70" height="40" as="geometry" />
        </mxCell>
        <mxCell id="cXAFU_0mryo2N9BoJsz5-47" style="edgeStyle=orthogonalEdgeStyle;rounded=0;orthogonalLoop=1;jettySize=auto;html=1;exitX=0;exitY=0.5;exitDx=0;exitDy=0;entryX=1;entryY=0.5;entryDx=0;entryDy=0;" parent="1" source="cXAFU_0mryo2N9BoJsz5-12" target="cXAFU_0mryo2N9BoJsz5-8" edge="1">
          <mxGeometry relative="1" as="geometry" />
        </mxCell>
        <mxCell id="cXAFU_0mryo2N9BoJsz5-12" value="数额" style="ellipse;whiteSpace=wrap;html=1;" parent="1" vertex="1">
          <mxGeometry x="680" y="101" width="70" height="40" as="geometry" />
        </mxCell>
        <mxCell id="cXAFU_0mryo2N9BoJsz5-48" style="edgeStyle=orthogonalEdgeStyle;rounded=0;orthogonalLoop=1;jettySize=auto;html=1;exitX=0;exitY=0.5;exitDx=0;exitDy=0;entryX=1;entryY=0.5;entryDx=0;entryDy=0;" parent="1" source="cXAFU_0mryo2N9BoJsz5-13" target="cXAFU_0mryo2N9BoJsz5-8" edge="1">
          <mxGeometry relative="1" as="geometry" />
        </mxCell>
        <mxCell id="cXAFU_0mryo2N9BoJsz5-13" value="预算说明" style="ellipse;whiteSpace=wrap;html=1;" parent="1" vertex="1">
          <mxGeometry x="680" y="151" width="70" height="40" as="geometry" />
        </mxCell>
        <mxCell id="cXAFU_0mryo2N9BoJsz5-52" style="edgeStyle=orthogonalEdgeStyle;rounded=0;orthogonalLoop=1;jettySize=auto;html=1;exitX=0;exitY=0.5;exitDx=0;exitDy=0;entryX=1;entryY=0.5;entryDx=0;entryDy=0;" parent="1" source="cXAFU_0mryo2N9BoJsz5-14" target="cXAFU_0mryo2N9BoJsz5-8" edge="1">
          <mxGeometry relative="1" as="geometry" />
        </mxCell>
        <mxCell id="cXAFU_0mryo2N9BoJsz5-14" value="预算日期" style="ellipse;whiteSpace=wrap;html=1;" parent="1" vertex="1">
          <mxGeometry x="680" y="201" width="70" height="40" as="geometry" />
        </mxCell>
        <mxCell id="cXAFU_0mryo2N9BoJsz5-53" style="edgeStyle=orthogonalEdgeStyle;rounded=0;orthogonalLoop=1;jettySize=auto;html=1;exitX=0;exitY=0.5;exitDx=0;exitDy=0;entryX=1;entryY=0.5;entryDx=0;entryDy=0;" parent="1" source="cXAFU_0mryo2N9BoJsz5-15" target="cXAFU_0mryo2N9BoJsz5-8" edge="1">
          <mxGeometry relative="1" as="geometry" />
        </mxCell>
        <mxCell id="cXAFU_0mryo2N9BoJsz5-15" value="所属家庭id" style="ellipse;whiteSpace=wrap;html=1;" parent="1" vertex="1">
          <mxGeometry x="680" y="251" width="70" height="40" as="geometry" />
        </mxCell>
        <mxCell id="cXAFU_0mryo2N9BoJsz5-55" style="edgeStyle=orthogonalEdgeStyle;rounded=0;orthogonalLoop=1;jettySize=auto;html=1;exitX=0;exitY=0.5;exitDx=0;exitDy=0;entryX=1;entryY=0.5;entryDx=0;entryDy=0;" parent="1" source="cXAFU_0mryo2N9BoJsz5-16" target="cXAFU_0mryo2N9BoJsz5-8" edge="1">
          <mxGeometry relative="1" as="geometry" />
        </mxCell>
        <mxCell id="cXAFU_0mryo2N9BoJsz5-16" value="当前预算余额" style="ellipse;whiteSpace=wrap;html=1;" parent="1" vertex="1">
          <mxGeometry x="675" y="301" width="80" height="40" as="geometry" />
        </mxCell>
        <mxCell id="cXAFU_0mryo2N9BoJsz5-62" style="edgeStyle=orthogonalEdgeStyle;rounded=0;orthogonalLoop=1;jettySize=auto;html=1;exitX=1;exitY=0.5;exitDx=0;exitDy=0;entryX=0;entryY=0.5;entryDx=0;entryDy=0;" parent="1" source="cXAFU_0mryo2N9BoJsz5-25" target="cXAFU_0mryo2N9BoJsz5-29" edge="1">
          <mxGeometry relative="1" as="geometry" />
        </mxCell>
        <mxCell id="cXAFU_0mryo2N9BoJsz5-98" value="n" style="edgeLabel;html=1;align=center;verticalAlign=middle;resizable=0;points=[];" parent="cXAFU_0mryo2N9BoJsz5-62" vertex="1" connectable="0">
          <mxGeometry x="-0.1" y="1" relative="1" as="geometry">
            <mxPoint y="1" as="offset" />
          </mxGeometry>
        </mxCell>
        <mxCell id="cXAFU_0mryo2N9BoJsz5-69" style="edgeStyle=orthogonalEdgeStyle;rounded=0;orthogonalLoop=1;jettySize=auto;html=1;exitX=0.5;exitY=0;exitDx=0;exitDy=0;entryX=0.5;entryY=1;entryDx=0;entryDy=0;" parent="1" source="cXAFU_0mryo2N9BoJsz5-25" target="cXAFU_0mryo2N9BoJsz5-65" edge="1">
          <mxGeometry relative="1" as="geometry" />
        </mxCell>
        <mxCell id="cXAFU_0mryo2N9BoJsz5-76" style="edgeStyle=orthogonalEdgeStyle;rounded=0;orthogonalLoop=1;jettySize=auto;html=1;exitX=0.5;exitY=1;exitDx=0;exitDy=0;entryX=0.5;entryY=0;entryDx=0;entryDy=0;" parent="1" source="cXAFU_0mryo2N9BoJsz5-25" target="cXAFU_0mryo2N9BoJsz5-73" edge="1">
          <mxGeometry relative="1" as="geometry" />
        </mxCell>
        <mxCell id="cXAFU_0mryo2N9BoJsz5-100" value="n" style="edgeLabel;html=1;align=center;verticalAlign=middle;resizable=0;points=[];" parent="cXAFU_0mryo2N9BoJsz5-76" vertex="1" connectable="0">
          <mxGeometry x="-0.3667" y="1" relative="1" as="geometry">
            <mxPoint y="1" as="offset" />
          </mxGeometry>
        </mxCell>
        <mxCell id="cXAFU_0mryo2N9BoJsz5-25" value="账单信息" style="rounded=0;whiteSpace=wrap;html=1;" parent="1" vertex="1">
          <mxGeometry x="400" y="360" width="70" height="40" as="geometry" />
        </mxCell>
        <mxCell id="cXAFU_0mryo2N9BoJsz5-31" style="edgeStyle=orthogonalEdgeStyle;rounded=0;orthogonalLoop=1;jettySize=auto;html=1;exitX=0.5;exitY=0;exitDx=0;exitDy=0;entryX=0.75;entryY=1;entryDx=0;entryDy=0;" parent="1" source="cXAFU_0mryo2N9BoJsz5-29" target="cXAFU_0mryo2N9BoJsz5-8" edge="1">
          <mxGeometry relative="1" as="geometry" />
        </mxCell>
        <mxCell id="cXAFU_0mryo2N9BoJsz5-99" value="m" style="edgeLabel;html=1;align=center;verticalAlign=middle;resizable=0;points=[];" parent="cXAFU_0mryo2N9BoJsz5-31" vertex="1" connectable="0">
          <mxGeometry x="-0.3333" relative="1" as="geometry">
            <mxPoint x="1" y="1" as="offset" />
          </mxGeometry>
        </mxCell>
        <mxCell id="cXAFU_0mryo2N9BoJsz5-29" value="统计" style="rhombus;whiteSpace=wrap;html=1;" parent="1" vertex="1">
          <mxGeometry x="540" y="360" width="90" height="40" as="geometry" />
        </mxCell>
        <mxCell id="cXAFU_0mryo2N9BoJsz5-67" style="edgeStyle=orthogonalEdgeStyle;rounded=0;orthogonalLoop=1;jettySize=auto;html=1;exitX=0.5;exitY=0;exitDx=0;exitDy=0;entryX=0.5;entryY=1;entryDx=0;entryDy=0;" parent="1" source="cXAFU_0mryo2N9BoJsz5-33" target="cXAFU_0mryo2N9BoJsz5-66" edge="1">
          <mxGeometry relative="1" as="geometry" />
        </mxCell>
        <mxCell id="cXAFU_0mryo2N9BoJsz5-92" value="n" style="edgeLabel;html=1;align=center;verticalAlign=middle;resizable=0;points=[];" parent="cXAFU_0mryo2N9BoJsz5-67" vertex="1" connectable="0">
          <mxGeometry x="-0.22" relative="1" as="geometry">
            <mxPoint x="1" y="1" as="offset" />
          </mxGeometry>
        </mxCell>
        <mxCell id="cXAFU_0mryo2N9BoJsz5-33" value="家庭成员" style="rounded=0;whiteSpace=wrap;html=1;" parent="1" vertex="1">
          <mxGeometry x="245" y="360" width="70" height="40" as="geometry" />
        </mxCell>
        <mxCell id="cXAFU_0mryo2N9BoJsz5-63" style="edgeStyle=orthogonalEdgeStyle;rounded=0;orthogonalLoop=1;jettySize=auto;html=1;exitX=0.5;exitY=0;exitDx=0;exitDy=0;entryX=0.5;entryY=1;entryDx=0;entryDy=0;" parent="1" source="cXAFU_0mryo2N9BoJsz5-34" target="cXAFU_0mryo2N9BoJsz5-2" edge="1">
          <mxGeometry relative="1" as="geometry" />
        </mxCell>
        <mxCell id="cXAFU_0mryo2N9BoJsz5-89" value="1" style="edgeLabel;html=1;align=center;verticalAlign=middle;resizable=0;points=[];" parent="cXAFU_0mryo2N9BoJsz5-63" vertex="1" connectable="0">
          <mxGeometry x="-0.1935" y="1" relative="1" as="geometry">
            <mxPoint x="1" y="1" as="offset" />
          </mxGeometry>
        </mxCell>
        <mxCell id="cXAFU_0mryo2N9BoJsz5-34" value="成员个人收支信息" style="rounded=0;whiteSpace=wrap;html=1;" parent="1" vertex="1">
          <mxGeometry x="245" y="201" width="70" height="40" as="geometry" />
        </mxCell>
        <mxCell id="cXAFU_0mryo2N9BoJsz5-57" style="edgeStyle=orthogonalEdgeStyle;rounded=0;orthogonalLoop=1;jettySize=auto;html=1;exitX=1;exitY=0.5;exitDx=0;exitDy=0;entryX=0;entryY=0.5;entryDx=0;entryDy=0;" parent="1" source="cXAFU_0mryo2N9BoJsz5-36" target="cXAFU_0mryo2N9BoJsz5-34" edge="1">
          <mxGeometry relative="1" as="geometry" />
        </mxCell>
        <mxCell id="cXAFU_0mryo2N9BoJsz5-36" value="收入" style="ellipse;whiteSpace=wrap;html=1;" parent="1" vertex="1">
          <mxGeometry x="50" y="141" width="70" height="40" as="geometry" />
        </mxCell>
        <mxCell id="cXAFU_0mryo2N9BoJsz5-56" style="edgeStyle=orthogonalEdgeStyle;rounded=0;orthogonalLoop=1;jettySize=auto;html=1;exitX=1;exitY=0.5;exitDx=0;exitDy=0;entryX=0;entryY=0.5;entryDx=0;entryDy=0;" parent="1" source="cXAFU_0mryo2N9BoJsz5-37" target="cXAFU_0mryo2N9BoJsz5-34" edge="1">
          <mxGeometry relative="1" as="geometry" />
        </mxCell>
        <mxCell id="cXAFU_0mryo2N9BoJsz5-37" value="支出" style="ellipse;whiteSpace=wrap;html=1;" parent="1" vertex="1">
          <mxGeometry x="50" y="90" width="70" height="40" as="geometry" />
        </mxCell>
        <mxCell id="cXAFU_0mryo2N9BoJsz5-59" style="edgeStyle=orthogonalEdgeStyle;rounded=0;orthogonalLoop=1;jettySize=auto;html=1;exitX=1;exitY=0.5;exitDx=0;exitDy=0;entryX=0;entryY=0.5;entryDx=0;entryDy=0;" parent="1" source="cXAFU_0mryo2N9BoJsz5-39" target="cXAFU_0mryo2N9BoJsz5-34" edge="1">
          <mxGeometry relative="1" as="geometry" />
        </mxCell>
        <mxCell id="cXAFU_0mryo2N9BoJsz5-39" value="身份证号码" style="ellipse;whiteSpace=wrap;html=1;" parent="1" vertex="1">
          <mxGeometry x="50" y="191" width="70" height="40" as="geometry" />
        </mxCell>
        <mxCell id="cXAFU_0mryo2N9BoJsz5-60" style="edgeStyle=orthogonalEdgeStyle;rounded=0;orthogonalLoop=1;jettySize=auto;html=1;exitX=1;exitY=0.5;exitDx=0;exitDy=0;entryX=0;entryY=0.5;entryDx=0;entryDy=0;" parent="1" source="cXAFU_0mryo2N9BoJsz5-40" target="cXAFU_0mryo2N9BoJsz5-34" edge="1">
          <mxGeometry relative="1" as="geometry" />
        </mxCell>
        <mxCell id="cXAFU_0mryo2N9BoJsz5-40" value="收支日期" style="ellipse;whiteSpace=wrap;html=1;" parent="1" vertex="1">
          <mxGeometry x="50" y="241" width="70" height="40" as="geometry" />
        </mxCell>
        <mxCell id="cXAFU_0mryo2N9BoJsz5-70" style="edgeStyle=orthogonalEdgeStyle;rounded=0;orthogonalLoop=1;jettySize=auto;html=1;exitX=0.5;exitY=0;exitDx=0;exitDy=0;entryX=1;entryY=0.5;entryDx=0;entryDy=0;" parent="1" source="cXAFU_0mryo2N9BoJsz5-65" target="cXAFU_0mryo2N9BoJsz5-34" edge="1">
          <mxGeometry relative="1" as="geometry" />
        </mxCell>
        <mxCell id="cXAFU_0mryo2N9BoJsz5-97" value="m" style="edgeLabel;html=1;align=center;verticalAlign=middle;resizable=0;points=[];" parent="cXAFU_0mryo2N9BoJsz5-70" vertex="1" connectable="0">
          <mxGeometry x="0.0355" relative="1" as="geometry">
            <mxPoint as="offset" />
          </mxGeometry>
        </mxCell>
        <mxCell id="cXAFU_0mryo2N9BoJsz5-94" value="" style="edgeStyle=orthogonalEdgeStyle;rounded=0;orthogonalLoop=1;jettySize=auto;html=1;" parent="1" source="cXAFU_0mryo2N9BoJsz5-65" target="cXAFU_0mryo2N9BoJsz5-25" edge="1">
          <mxGeometry relative="1" as="geometry" />
        </mxCell>
        <mxCell id="cXAFU_0mryo2N9BoJsz5-96" value="n" style="edgeLabel;html=1;align=center;verticalAlign=middle;resizable=0;points=[];" parent="cXAFU_0mryo2N9BoJsz5-94" vertex="1" connectable="0">
          <mxGeometry x="0.06" relative="1" as="geometry">
            <mxPoint as="offset" />
          </mxGeometry>
        </mxCell>
        <mxCell id="cXAFU_0mryo2N9BoJsz5-65" value="统计" style="rhombus;whiteSpace=wrap;html=1;" parent="1" vertex="1">
          <mxGeometry x="390" y="270" width="90" height="40" as="geometry" />
        </mxCell>
        <mxCell id="cXAFU_0mryo2N9BoJsz5-68" style="edgeStyle=orthogonalEdgeStyle;rounded=0;orthogonalLoop=1;jettySize=auto;html=1;exitX=0.5;exitY=0;exitDx=0;exitDy=0;entryX=0.5;entryY=1;entryDx=0;entryDy=0;" parent="1" source="cXAFU_0mryo2N9BoJsz5-66" target="cXAFU_0mryo2N9BoJsz5-34" edge="1">
          <mxGeometry relative="1" as="geometry">
            <Array as="points">
              <mxPoint x="280" y="260" />
              <mxPoint x="280" y="260" />
            </Array>
          </mxGeometry>
        </mxCell>
        <mxCell id="cXAFU_0mryo2N9BoJsz5-93" value="1" style="edgeLabel;html=1;align=center;verticalAlign=middle;resizable=0;points=[];" parent="cXAFU_0mryo2N9BoJsz5-68" vertex="1" connectable="0">
          <mxGeometry x="-0.1379" y="1" relative="1" as="geometry">
            <mxPoint x="1" y="1" as="offset" />
          </mxGeometry>
        </mxCell>
        <mxCell id="cXAFU_0mryo2N9BoJsz5-66" value="筛选" style="rhombus;whiteSpace=wrap;html=1;" parent="1" vertex="1">
          <mxGeometry x="235" y="270" width="90" height="40" as="geometry" />
        </mxCell>
        <mxCell id="cXAFU_0mryo2N9BoJsz5-71" value="每年每月收支信息" style="rounded=0;whiteSpace=wrap;html=1;" parent="1" vertex="1">
          <mxGeometry x="400" y="490" width="70" height="40" as="geometry" />
        </mxCell>
        <mxCell id="cXAFU_0mryo2N9BoJsz5-83" style="edgeStyle=orthogonalEdgeStyle;rounded=0;orthogonalLoop=1;jettySize=auto;html=1;exitX=0.5;exitY=0;exitDx=0;exitDy=0;entryX=0.5;entryY=1;entryDx=0;entryDy=0;" parent="1" source="cXAFU_0mryo2N9BoJsz5-72" target="cXAFU_0mryo2N9BoJsz5-71" edge="1">
          <mxGeometry relative="1" as="geometry" />
        </mxCell>
        <mxCell id="cXAFU_0mryo2N9BoJsz5-72" value="数额" style="ellipse;whiteSpace=wrap;html=1;" parent="1" vertex="1">
          <mxGeometry x="280" y="570" width="70" height="40" as="geometry" />
        </mxCell>
        <mxCell id="cXAFU_0mryo2N9BoJsz5-77" style="edgeStyle=orthogonalEdgeStyle;rounded=0;orthogonalLoop=1;jettySize=auto;html=1;exitX=0.5;exitY=1;exitDx=0;exitDy=0;entryX=0.5;entryY=0;entryDx=0;entryDy=0;" parent="1" source="cXAFU_0mryo2N9BoJsz5-73" target="cXAFU_0mryo2N9BoJsz5-71" edge="1">
          <mxGeometry relative="1" as="geometry">
            <Array as="points">
              <mxPoint x="435" y="480" />
              <mxPoint x="435" y="480" />
            </Array>
          </mxGeometry>
        </mxCell>
        <mxCell id="cXAFU_0mryo2N9BoJsz5-101" value="1" style="edgeLabel;html=1;align=center;verticalAlign=middle;resizable=0;points=[];" parent="cXAFU_0mryo2N9BoJsz5-77" vertex="1" connectable="0">
          <mxGeometry x="-0.45" relative="1" as="geometry">
            <mxPoint as="offset" />
          </mxGeometry>
        </mxCell>
        <mxCell id="cXAFU_0mryo2N9BoJsz5-73" value="记录" style="rhombus;whiteSpace=wrap;html=1;" parent="1" vertex="1">
          <mxGeometry x="390" y="430" width="90" height="40" as="geometry" />
        </mxCell>
        <mxCell id="cXAFU_0mryo2N9BoJsz5-84" style="edgeStyle=orthogonalEdgeStyle;rounded=0;orthogonalLoop=1;jettySize=auto;html=1;exitX=0.5;exitY=0;exitDx=0;exitDy=0;entryX=0.5;entryY=1;entryDx=0;entryDy=0;" parent="1" source="cXAFU_0mryo2N9BoJsz5-78" target="cXAFU_0mryo2N9BoJsz5-71" edge="1">
          <mxGeometry relative="1" as="geometry" />
        </mxCell>
        <mxCell id="cXAFU_0mryo2N9BoJsz5-78" value="账单开始日期" style="ellipse;whiteSpace=wrap;html=1;" parent="1" vertex="1">
          <mxGeometry x="360" y="570" width="70" height="40" as="geometry" />
        </mxCell>
        <mxCell id="cXAFU_0mryo2N9BoJsz5-85" style="edgeStyle=orthogonalEdgeStyle;rounded=0;orthogonalLoop=1;jettySize=auto;html=1;exitX=0.5;exitY=0;exitDx=0;exitDy=0;entryX=0.5;entryY=1;entryDx=0;entryDy=0;" parent="1" source="cXAFU_0mryo2N9BoJsz5-79" target="cXAFU_0mryo2N9BoJsz5-71" edge="1">
          <mxGeometry relative="1" as="geometry" />
        </mxCell>
        <mxCell id="cXAFU_0mryo2N9BoJsz5-79" value="账单结束日期" style="ellipse;whiteSpace=wrap;html=1;" parent="1" vertex="1">
          <mxGeometry x="449" y="570" width="70" height="40" as="geometry" />
        </mxCell>
        <mxCell id="cXAFU_0mryo2N9BoJsz5-86" style="edgeStyle=orthogonalEdgeStyle;rounded=0;orthogonalLoop=1;jettySize=auto;html=1;exitX=0.5;exitY=0;exitDx=0;exitDy=0;entryX=0.5;entryY=1;entryDx=0;entryDy=0;" parent="1" source="cXAFU_0mryo2N9BoJsz5-80" target="cXAFU_0mryo2N9BoJsz5-71" edge="1">
          <mxGeometry relative="1" as="geometry" />
        </mxCell>
        <mxCell id="cXAFU_0mryo2N9BoJsz5-80" value="所属家庭id" style="ellipse;whiteSpace=wrap;html=1;" parent="1" vertex="1">
          <mxGeometry x="530" y="570" width="70" height="40" as="geometry" />
        </mxCell>
      </root>
    </mxGraphModel>
  </diagram>
</mxfile>
